<?xml version="1.0" encoding="UTF-8"?>
<svg id="Layer_2" xmlns="http://www.w3.org/2000/svg" viewBox="0 0 374.4 174">
  <defs>
    <style>
      .cls-1 {
        fill: #fff;
      }
    </style>
  </defs>
  <g id="Layer_1-2" data-name="Layer_1">
    <g>
      <g>
        <path class="cls-1" d="M374.4,174H0C0,116,0,58,0,0c124.8,0,249.6,0,374.4,0v174ZM90.86,29.5c-.43,1.18-.11,1.86.85,2.39,1.15.64,2.25,1.38,3.3,2.17.35.26.67.81.67,1.23.03,16.97.03,33.95,0,50.92,0,.44-.37,1.02-.75,1.29-1.14.8-2.39,1.44-3.55,2.22-.58.39-1.04.36-1.64.06-1.56-.8-3.14-1.58-4.75-2.28-.79-.35-1.23-.87-1.55-1.67-4.78-12.04-9.59-24.07-14.39-36.11-4.14-10.37-8.27-20.74-12.44-31.1-.36-.88-.27-1.31.65-1.72,1.64-.72,3.19-1.65,4.83-2.38.94-.42,1.2-1.03.95-2.05-.35,0-.7,0-1.06,0-8.23-.03-16.47-.04-24.7-.12-1.03-.01-1.33.36-1.59,1.26-4.28,15.28-8.54,30.56-12.93,45.81-1.97,6.86-4.18,13.65-7.53,20-2.5,4.73-5.94,8.49-10.97,10.58-.93.39-1,.99-.76,1.87h37.46c.02-.45.04-.86.06-1.3-.73-.14-1.36-.23-1.97-.39-4.04-1.08-6.29-4.03-7.86-7.64-1.64-3.77-2.32-7.78-2.67-11.85-.14-1.64-.2-3.3-.29-4.89.31-.08.39-.12.46-.12,8.19,0,16.39-.02,24.58.02.36,0,.91.46,1.05.82,2.42,6.46,4.79,12.94,7.2,19.4.25.68.08.99-.47,1.36-1.29.88-2.5,1.86-3.8,2.72-.87.57-.99,1.23-.65,2.12h62.69c.35-1.02.07-1.68-.84-2.22-1.16-.69-2.22-1.56-3.38-2.27-.63-.39-.81-.86-.81-1.57.02-14.26,0-28.52.04-42.77,0-.87.28-1.84.73-2.59,1.85-3.06,4.81-4.22,8.21-4.29,4.69-.08,6.71,1.84,6.74,6.48.11,14.46.16,28.91.19,43.37,0,.41-.33.97-.68,1.21-1.29.87-2.61,1.7-3.98,2.43-.97.52-1.33,1.15-.87,2.22h29.19c.33-1.04.04-1.71-.87-2.23-1.07-.62-2.02-1.44-3.08-2.07-.83-.49-1.08-1.1-1.08-2.04.04-11.98.07-23.96.03-35.94,0-2.83-.09-5.68-.43-8.48-.67-5.48-3.65-8.72-9.02-9.99-5.19-1.23-10.4-1.08-15.52.35-3.56.99-6.52,2.96-8.79,5.92-.18.23-.37.45-.56.68-.25-1.61-.23-3.15-.25-4.69-.05-2.93-1-3.91-3.95-4.1-.4-.03-.8-.04-1.2-.04-4.72,0-9.43,0-14.15,0-1.39,0-2.78,0-4.12,0ZM157.66,84.8c.42.04.73.1,1.04.11,2.36.06,4.71.08,7.07.17,8.31.31,16.58,1.05,24.71,2.87,3.19.72,6.38,1.51,9.12,3.44,2.57,1.81,3.17,4.73,1.44,7.35-.63.95-1.43,1.83-2.3,2.57-2.33,1.97-5.12,3.07-8.02,3.89-4.62,1.31-9.36,1.67-14.12,1.59-3.13-.05-6.19-.66-8.99-2.18-3.04-1.66-4.64-4.48-4.25-7.66.24-1.98.92-3.82,2.22-5.34.58-.68.68-1.14.19-1.96-.53-.88-1.11-.51-1.73-.38-.51.11-1.01.25-1.5.41-3.23,1.02-6.32,2.27-8.49,5.07-2.35,3.04-2.03,6.31.89,8.8,2.09,1.78,4.6,2.73,7.22,3.33,9.3,2.12,18.61,2.03,27.9-.13,6.27-1.46,12.07-3.92,16.85-8.37,3.28-3.06,5.3-6.8,5.56-11.32.38-6.61-2.75-11.2-9.24-13.67-5.37-2.04-11.04-2.46-16.69-2.91-3.9-.31-7.8-.57-11.69-.98-1.08-.11-2.16-.57-3.14-1.06-.75-.37-1.16-1.09-.71-2.01.51-1.02,1.33-1.45,2.27-1.17,7.62,2.29,15.29,2.35,22.91.12,8.13-2.38,12.54-8.01,12.81-16.22.2-6.22-1.83-11.47-7.18-15.06-1.38-.93-2.92-1.6-4.63-2.52.51-.67.93-1.46,1.56-1.98,3.85-3.17,13.1-1.87,13.59,5.12.07.92.59,1.15,1.25.47,2.22-2.28,4.42-4.6,6.51-7,.32-.36.33-1.42.03-1.82-2.22-3-5.12-5.03-8.96-4.98-6.7.07-11.51,3.51-15,9-.44.7-.78.91-1.58.74-6.61-1.45-13.22-1.41-19.84.08-8.38,1.88-13.63,7.65-14.09,15.79-.43,7.58,2.33,13.48,9.35,17.01.23.12.44.27,1.07.66-.74.56-1.4.92-1.87,1.44-3.68,4.15-7.32,8.33-10.96,12.52-.25.29-.55.68-.56,1.03-.06,1.71-.03,3.41-.03,5.18ZM346.91,91.98c.4-1.17-.1-1.65-1-2.03-1.84-.77-3.62-1.68-5.46-2.46-.85-.36-1.17-.8-1.16-1.77.09-9.91.15-19.81.15-29.72,0-3.51-.11-7.03-.33-10.53-.49-7.71-3.62-11.75-10.99-14.01-2.38-.73-4.91-1.18-7.39-1.35-7.43-.51-14.32,1.09-20.09,6.08-3.64,3.15-5.49,7.28-6.02,12.02-.13,1.13-.14,2.43,1.24,2.78,5.33,1.35,10.69,2.59,16.04,3.89.81.2,1.55.03,1.86-.64.18-.39-.12-1.09-.36-1.57-2.04-4.05-3.79-8.18-4.13-12.78-.29-3.88,1.3-6.9,4.27-8.06,3.35-1.31,6.13.15,6.8,3.64.22,1.13.34,2.3.36,3.45.09,4.87.03,9.75.24,14.61.08,1.92-.68,3.1-2.11,4.07-.59.4-1.19.82-1.84,1.11-2.27.99-4.58,1.86-6.83,2.88-2.94,1.33-6.01,2.48-8.71,4.2-6.6,4.19-8.09,11.07-6.11,18.21,1.56,5.63,6.02,8.9,11.87,8.98,5,.06,9.01-2.09,12.36-5.65.33-.35.66-.71.99-1.07l.27.13v5.59h26.11ZM234.81,66.19c3.75-1.75,7.4-3.35,10.95-5.15,6.93-3.52,13.81-7.16,20.71-10.75.99-.52,1.27-1.39,1.14-2.41-.94-7.23-4.92-12.33-11.23-15.69-5.82-3.1-12.04-4.09-18.57-2.95-8.79,1.53-15.55,6.03-19.87,13.89-3.56,6.47-4.43,13.53-3.92,20.77.63,8.92,3.85,16.7,10.96,22.46,13.6,11.02,34.04,6.27,39.48-13.36-.71-.62-1.21-.5-1.84.25-.91,1.1-1.93,2.15-3.05,3.02-3.89,3.01-8.3,4.49-13.22,3.63-7.09-1.25-10.74-7.62-11.53-13.7ZM267.86,6.72c-.37,1.15-.06,1.76.81,2.26,1.04.59,1.97,1.37,3.01,1.96.82.47,1.08,1.07,1.08,2.02-.03,15.22-.02,30.43-.02,45.65,0,9.15-.01,18.29.02,27.44,0,.78-.22,1.23-.9,1.62-1.36.75-2.64,1.66-4.01,2.39-.87.47-1.08,1.05-.76,1.94h29.24c.34-.94.04-1.53-.76-2.02-1.19-.73-2.29-1.61-3.47-2.35-.65-.41-.89-.87-.89-1.65.06-24.96.09-49.92.14-74.88,0-3.15-1.14-4.37-4.29-4.38-5.36,0-10.71,0-16.07.01-1.07,0-2.14,0-3.13,0ZM282.78,105.73v15.69h3.36v-8.81c.38.31.56.64.72.99,1.05,2.32,2.13,4.64,3.14,6.98.3.69.67.93,1.43.94.78,0,1.12-.3,1.41-.96.81-1.87,1.67-3.71,2.52-5.55.37-.81.76-1.6,1.14-2.41.09.02.18.04.27.06v8.73h3.27v-15.66c-.83,0-1.55.06-2.26-.02-.98-.11-1.47.25-1.87,1.17-1.26,2.93-2.64,5.81-3.98,8.7-.13.29-.31.56-.57,1.01-1.59-3.49-3.06-6.76-4.58-10.01-.16-.34-.53-.78-.84-.82-1.02-.1-2.05-.04-3.16-.04ZM306.11,121.43c2.74,0,5.41.12,8.06-.04,2.08-.13,3.38-1.44,3.73-3.31.38-2.05-.38-3.58-2.32-4.58,1.77-1.22,2.23-2.85,1.66-4.76-.51-1.71-1.77-2.74-3.48-2.85-2.53-.16-5.07-.04-7.65-.04v15.58ZM277.33,113.57c-.02-4.45-3.67-8.08-8.1-8.06-4.42.03-8.05,3.69-8.03,8.13.01,4.43,3.69,8.08,8.11,8.05,4.44-.02,8.04-3.68,8.02-8.13ZM357.26,105.59v15.87c1.96,0,3.87.11,5.77-.02,3.85-.26,6.9-3.38,7.23-7.23.31-3.62-2.12-7.34-5.71-8.1-2.34-.49-4.8-.36-7.29-.52ZM343.88,115.49c1.01-.3,1.53-.02,1.96.71.92,1.54,1.91,3.04,2.89,4.54.18.28.46.68.72.7,1.11.08,2.24.03,3.55.03-1.55-2.28-2.94-4.34-4.36-6.43.34-.17.52-.26.69-.35,1.82-1.01,2.75-2.91,2.4-4.92-.38-2.15-1.81-3.77-3.92-3.93-2.41-.18-4.84-.04-7.31-.04v15.6h3.38v-5.92ZM336.35,121.44c-.15-.49-.27-.9-.41-1.31-1.43-3.97-2.86-7.95-4.29-11.92-.9-2.49-.9-2.46-3.62-2.5-.86-.01-1.25.25-1.54,1.07-1.58,4.51-3.22,9.01-4.83,13.51-.13.36-.22.74-.35,1.15h3.56c.23-.68.48-1.32.64-1.97.18-.75.58-1.02,1.36-.98,1.2.06,2.4.08,3.59,0,.99-.07,1.58.2,1.76,1.25.11.6.38,1.18.56,1.7h3.57ZM252.02,118.42v-12.62h-3.24v15.59h8.46v-2.97h-5.22Z"/>
        <path class="cls-1" d="M90.86,29.5c1.34,0,2.73,0,4.12,0,4.72,0,9.43,0,14.15,0,.4,0,.8.01,1.2.04,2.95.19,3.9,1.17,3.95,4.1.03,1.54,0,3.08.25,4.69.19-.23.38-.45.56-.68,2.26-2.96,5.23-4.93,8.79-5.92,5.13-1.43,10.33-1.58,15.52-.35,5.37,1.27,8.35,4.51,9.02,9.99.34,2.8.43,5.65.43,8.48.03,11.98,0,23.96-.03,35.94,0,.94.25,1.55,1.08,2.04,1.06.63,2.01,1.45,3.08,2.07.91.53,1.2,1.19.87,2.23h-29.19c-.46-1.07-.1-1.7.87-2.22,1.37-.73,2.7-1.56,3.98-2.43.35-.24.68-.8.68-1.21-.04-14.46-.09-28.91-.19-43.37-.03-4.63-2.05-6.56-6.74-6.48-3.41.06-6.36,1.23-8.21,4.29-.45.74-.73,1.72-.73,2.59-.04,14.26-.03,28.52-.04,42.77,0,.71.18,1.18.81,1.57,1.15.71,2.21,1.58,3.38,2.27.91.54,1.19,1.2.84,2.22h-62.69c-.34-.89-.22-1.55.65-2.12,1.3-.85,2.51-1.84,3.8-2.72.54-.37.72-.68.47-1.36-2.41-6.46-4.78-12.94-7.2-19.4-.14-.37-.69-.82-1.05-.82-8.19-.04-16.39-.03-24.58-.02-.08,0-.15.04-.46.12.09,1.6.15,3.25.29,4.89.35,4.07,1.03,8.08,2.67,11.85,1.57,3.61,3.82,6.56,7.86,7.64.61.16,1.24.25,1.97.39-.02.43-.04.85-.06,1.3H3.51c-.24-.88-.17-1.48.76-1.87,5.03-2.09,8.47-5.86,10.97-10.58,3.35-6.35,5.56-13.15,7.53-20,4.39-15.25,8.65-30.53,12.93-45.81.25-.9.56-1.27,1.59-1.26,8.23.08,16.47.09,24.7.12.35,0,.71,0,1.06,0,.24,1.02-.01,1.62-.95,2.05-1.64.73-3.19,1.65-4.83,2.38-.92.4-1.01.84-.65,1.72,4.17,10.36,8.3,20.73,12.44,31.1,4.8,12.03,9.61,24.07,14.39,36.11.32.8.76,1.32,1.55,1.67,1.61.71,3.18,1.48,4.75,2.28.6.31,1.06.33,1.64-.06,1.16-.78,2.41-1.42,3.55-2.22.38-.26.75-.85.75-1.29.04-16.97.04-33.95,0-50.92,0-.42-.33-.97-.67-1.23-1.05-.79-2.15-1.53-3.3-2.17-.97-.54-1.28-1.21-.85-2.39ZM53.23,63.67c-5.6-15.1-11.17-30.14-16.75-45.18-.22.01-.44.02-.67.03-4.21,14.72-7.35,29.63-7.6,45.15h25.01Z"/>
        <path class="cls-1" d="M157.66,84.8c0-1.76-.03-3.47.03-5.18.01-.35.31-.73.56-1.03,3.64-4.18,7.29-8.36,10.96-12.52.47-.53,1.13-.88,1.87-1.44-.63-.39-.84-.54-1.07-.66-7.02-3.53-9.78-9.43-9.35-17.01.46-8.15,5.72-13.91,14.09-15.79,6.62-1.49,13.22-1.52,19.84-.08.8.17,1.13-.04,1.58-.74,3.49-5.49,8.3-8.92,15-9,3.84-.04,6.75,1.99,8.96,4.98.3.4.28,1.46-.03,1.82-2.1,2.4-4.29,4.72-6.51,7-.66.68-1.19.45-1.25-.47-.5-6.99-9.75-8.29-13.59-5.12-.64.52-1.05,1.32-1.56,1.98,1.71.92,3.25,1.6,4.63,2.52,5.34,3.59,7.38,8.84,7.18,15.06-.27,8.21-4.68,13.84-12.81,16.22-7.62,2.23-15.28,2.18-22.91-.12-.94-.28-1.76.15-2.27,1.17-.46.93-.04,1.64.71,2.01.99.49,2.07.95,3.14,1.06,3.89.41,7.79.67,11.69.98,5.66.45,11.32.86,16.69,2.91,6.49,2.47,9.62,7.06,9.24,13.67-.26,4.52-2.28,8.27-5.56,11.32-4.78,4.45-10.58,6.91-16.85,8.37-9.29,2.17-18.6,2.25-27.9.13-2.62-.6-5.13-1.55-7.22-3.33-2.92-2.48-3.24-5.76-.89-8.8,2.17-2.8,5.26-4.05,8.49-5.07.49-.16.99-.3,1.5-.41.62-.13,1.2-.51,1.73.38.49.81.39,1.28-.19,1.96-1.3,1.53-1.97,3.36-2.22,5.34-.39,3.18,1.21,6,4.25,7.66,2.81,1.53,5.86,2.13,8.99,2.18,4.76.08,9.5-.28,14.12-1.59,2.9-.82,5.69-1.92,8.02-3.89.87-.74,1.68-1.62,2.3-2.57,1.73-2.62,1.12-5.54-1.44-7.35-2.74-1.93-5.93-2.73-9.12-3.44-8.13-1.83-16.4-2.56-24.71-2.87-2.36-.09-4.71-.11-7.07-.17-.31,0-.62-.06-1.04-.11ZM180.01,49.02c.09,1.98.14,4.66.36,7.32.19,2.42.53,4.85,1.86,6.98,1.39,2.22,3.75,2.25,5.06-.02.69-1.18,1.21-2.54,1.45-3.88,1.23-6.97,1.09-13.98.16-20.96-.23-1.76-.94-3.56-1.84-5.1-1.08-1.85-3.34-1.79-4.56,0-.64.93-1.11,2.04-1.41,3.13-1.08,3.88-1.04,7.88-1.08,12.56Z"/>
        <path class="cls-1" d="M346.91,91.98h-26.11v-5.59l-.27-.13c-.33.36-.65.72-.99,1.07-3.35,3.56-7.36,5.71-12.36,5.65-5.85-.07-10.31-3.35-11.87-8.98-1.98-7.15-.49-14.02,6.11-18.21,2.7-1.72,5.77-2.87,8.71-4.2,2.25-1.02,4.56-1.9,6.83-2.88.65-.28,1.25-.71,1.84-1.11,1.43-.97,2.2-2.15,2.11-4.07-.21-4.87-.15-9.74-.24-14.61-.02-1.15-.14-2.32-.36-3.45-.67-3.48-3.45-4.95-6.8-3.64-2.97,1.16-4.56,4.19-4.27,8.06.34,4.6,2.09,8.73,4.13,12.78.24.48.54,1.18.36,1.57-.31.67-1.06.84-1.86.64-5.34-1.31-10.71-2.54-16.04-3.89-1.38-.35-1.37-1.65-1.24-2.78.53-4.74,2.39-8.87,6.02-12.02,5.77-4.99,12.66-6.58,20.09-6.08,2.49.17,5.01.62,7.39,1.35,7.37,2.26,10.5,6.31,10.99,14.01.22,3.5.33,7.02.33,10.53,0,9.91-.06,19.81-.15,29.72,0,.97.31,1.41,1.16,1.77,1.84.77,3.62,1.68,5.46,2.46.9.38,1.4.86,1,2.03ZM320.8,57.36c-1.65,1.85-3.19,3.55-4.71,5.27-2.5,2.83-4.09,6.08-4.45,9.86-.3,3.07-.28,6.14,1.03,9.04,1.34,2.96,4.09,4.24,6.94,3.33.8-.25,1.12-.64,1.11-1.53-.02-4.27.05-8.53.07-12.8.02-4.31,0-8.61,0-13.17Z"/>
        <path class="cls-1" d="M234.81,66.19c.79,6.08,4.44,12.45,11.53,13.7,4.93.87,9.33-.62,13.22-3.63,1.13-.87,2.14-1.93,3.05-3.02.63-.76,1.13-.87,1.84-.25-5.44,19.63-25.88,24.37-39.48,13.36-7.1-5.76-10.33-13.54-10.96-22.46-.51-7.24.36-14.3,3.92-20.77,4.32-7.86,11.07-12.36,19.87-13.89,6.52-1.13,12.74-.15,18.57,2.95,6.31,3.36,10.29,8.46,11.23,15.69.13,1.03-.14,1.9-1.14,2.41-6.9,3.59-13.77,7.23-20.71,10.75-3.55,1.8-7.2,3.4-10.95,5.15ZM234.32,63.2c.38-.33.53-.45.67-.6,4.41-4.84,8.9-9.61,13.19-14.55,2.51-2.89,4.76-6.02,6.25-9.6,1.37-3.3,0-6.03-3.45-6.86-2.6-.63-5.06-.2-7.37,1.17-2.47,1.47-3.98,3.77-5.27,6.22-2.45,4.67-3.62,9.71-3.97,14.92-.2,3-.04,6.03-.04,9.3Z"/>
        <path class="cls-1" d="M267.86,6.72c.99,0,2.06,0,3.13,0,5.36,0,10.71-.02,16.07-.01,3.15,0,4.3,1.23,4.29,4.38-.05,24.96-.08,49.92-.14,74.88,0,.78.24,1.24.89,1.65,1.18.74,2.29,1.61,3.47,2.35.8.49,1.1,1.08.76,2.02h-29.24c-.32-.89-.12-1.47.76-1.94,1.37-.74,2.65-1.64,4.01-2.39.69-.38.91-.84.9-1.62-.03-9.15-.02-18.29-.02-27.44,0-15.22,0-30.43.02-45.65,0-.95-.26-1.54-1.08-2.02-1.04-.6-1.97-1.37-3.01-1.96-.87-.49-1.18-1.11-.81-2.26Z"/>
        <path class="cls-1" d="M282.78,105.73c1.1,0,2.14-.06,3.16.04.31.03.68.47.84.82,1.51,3.25,2.99,6.52,4.58,10.01.26-.45.44-.72.57-1.01,1.34-2.89,2.72-5.77,3.98-8.7.4-.92.89-1.28,1.87-1.17.71.08,1.43.02,2.26.02v15.66h-3.27v-8.73c-.09-.02-.18-.04-.27-.06-.38.8-.77,1.6-1.14,2.41-.85,1.85-1.72,3.69-2.52,5.55-.29.66-.63.97-1.41.96-.75,0-1.13-.25-1.43-.94-1.01-2.34-2.08-4.66-3.14-6.98-.16-.35-.34-.68-.72-.99v8.81h-3.36v-15.69Z"/>
        <path class="cls-1" d="M306.11,121.43v-15.58c2.58,0,5.13-.12,7.65.04,1.71.11,2.98,1.15,3.48,2.85.57,1.91.11,3.54-1.66,4.76,1.94,1,2.7,2.53,2.32,4.58-.35,1.87-1.65,3.18-3.73,3.31-2.65.16-5.32.04-8.06.04ZM309.56,118.42c1.23,0,2.38.06,3.52-.02.91-.07,1.44-.69,1.47-1.59.03-.96-.5-1.65-1.44-1.75-1.16-.12-2.34-.03-3.55-.03v3.39ZM309.55,112.19c1.04,0,1.95.06,2.86-.02,1.01-.08,1.6-.7,1.6-1.73,0-.98-.59-1.57-1.54-1.65-.94-.08-1.89-.02-2.92-.02v3.41Z"/>
        <path class="cls-1" d="M277.33,113.57c.02,4.45-3.58,8.1-8.02,8.13-4.42.02-8.09-3.62-8.11-8.05-.01-4.44,3.61-8.11,8.03-8.13,4.43-.03,8.08,3.6,8.1,8.06ZM273.98,113.64c.02-2.67-1.98-4.73-4.64-4.78-2.6-.05-4.74,2.03-4.79,4.66-.05,2.68,2.07,4.85,4.73,4.85,2.65,0,4.69-2.05,4.71-4.72Z"/>
        <path class="cls-1" d="M357.26,105.59c2.48.15,4.95.02,7.29.52,3.59.76,6.03,4.49,5.71,8.1-.33,3.85-3.38,6.97-7.23,7.23-1.89.13-3.81.02-5.77.02v-15.87ZM360.73,118.37c2.29.29,4.24-.05,5.41-2.11,1.05-1.84,1.01-3.77-.17-5.55-1.24-1.88-3.13-2.12-5.24-1.85v9.51Z"/>
        <path class="cls-1" d="M343.88,115.49v5.92h-3.38v-15.6c2.47,0,4.9-.14,7.31.04,2.12.16,3.54,1.77,3.92,3.93.35,2.01-.58,3.91-2.4,4.92-.17.09-.35.18-.69.35,1.42,2.09,2.81,4.15,4.36,6.43-1.31,0-2.43.04-3.55-.03-.26-.02-.54-.42-.72-.7-.98-1.5-1.97-3-2.89-4.54-.44-.73-.96-1.01-1.96-.71ZM343.96,108.78v3.74c1.03,0,1.98.08,2.92-.02,1.11-.12,1.72-.92,1.64-1.96-.08-1.08-.73-1.66-1.76-1.74-.9-.07-1.81-.01-2.8-.01Z"/>
        <path class="cls-1" d="M336.35,121.44h-3.57c-.18-.53-.45-1.1-.56-1.7-.18-1.05-.77-1.31-1.76-1.25-1.19.08-2.4.06-3.59,0-.77-.04-1.18.23-1.36.98-.16.65-.41,1.28-.64,1.97h-3.56c.12-.41.22-.79.35-1.15,1.61-4.5,3.25-8.99,4.83-13.51.29-.82.68-1.08,1.54-1.07,2.72.04,2.72,0,3.62,2.5,1.43,3.97,2.87,7.95,4.29,11.92.15.41.26.82.41,1.31ZM328.97,109.74c-.1,0-.2,0-.3,0-.62,1.91-1.23,3.82-1.89,5.86h4.07c-.66-2.04-1.27-3.95-1.89-5.86Z"/>
        <path class="cls-1" d="M252.02,118.42h5.22v2.97h-8.46v-15.59h3.24v12.62Z"/>
        <path class="cls-1" d="M53.23,63.67h-25.01c.25-15.51,3.39-30.42,7.6-45.15.22-.01.44-.02.67-.03,5.57,15.04,11.15,30.07,16.75,45.18Z"/>
        <path class="cls-1" d="M180.01,49.02c.04-4.67,0-8.67,1.08-12.56.3-1.09.77-2.2,1.41-3.13,1.22-1.78,3.48-1.84,4.56,0,.9,1.54,1.6,3.34,1.84,5.1.92,6.98,1.07,13.99-.16,20.96-.24,1.34-.76,2.7-1.45,3.88-1.32,2.27-3.67,2.24-5.06.02-1.33-2.13-1.66-4.55-1.86-6.98-.21-2.66-.27-5.33-.36-7.32Z"/>
        <path class="cls-1" d="M320.8,57.36c0,4.56.01,8.86,0,13.17-.02,4.27-.09,8.53-.07,12.8,0,.89-.32,1.28-1.11,1.53-2.86.91-5.6-.37-6.94-3.33-1.31-2.9-1.33-5.97-1.03-9.04.36-3.77,1.95-7.03,4.45-9.86,1.52-1.72,3.06-3.43,4.71-5.27Z"/>
        <path class="cls-1" d="M234.32,63.2c0-3.27-.16-6.3.04-9.3.35-5.21,1.51-10.26,3.97-14.92,1.29-2.45,2.8-4.75,5.27-6.22,2.31-1.37,4.77-1.8,7.37-1.17,3.46.84,4.83,3.56,3.45,6.86-1.49,3.58-3.74,6.71-6.25,9.6-4.29,4.94-8.78,9.71-13.19,14.55-.13.14-.29.26-.67.6Z"/>
        <path class="cls-1" d="M309.56,118.42v-3.39c1.2,0,2.39-.09,3.55.03.94.09,1.47.79,1.44,1.75-.03.9-.56,1.52-1.47,1.59-1.14.08-2.29.02-3.52.02Z"/>
        <path class="cls-1" d="M309.55,112.19v-3.41c1.03,0,1.98-.06,2.92.02.95.08,1.54.67,1.54,1.65,0,1.03-.59,1.64-1.6,1.73-.9.08-1.82.02-2.86.02Z"/>
        <path class="cls-1" d="M273.98,113.64c-.02,2.67-2.06,4.72-4.71,4.72-2.66,0-4.78-2.17-4.73-4.85.05-2.63,2.19-4.71,4.79-4.66,2.66.06,4.66,2.11,4.64,4.78Z"/>
        <path class="cls-1" d="M360.73,118.37v-9.51c2.12-.27,4-.03,5.24,1.85,1.18,1.79,1.22,3.71.17,5.55-1.17,2.06-3.13,2.4-5.41,2.11Z"/>
        <path class="cls-1" d="M343.96,108.78c.99,0,1.9-.06,2.8.01,1.03.08,1.68.67,1.76,1.74.08,1.04-.54,1.84-1.64,1.96-.93.1-1.88.02-2.92.02v-3.74Z"/>
        <path class="cls-1" d="M328.97,109.74c.62,1.91,1.23,3.82,1.89,5.86h-4.07c.66-2.04,1.27-3.95,1.89-5.86.1,0,.2,0,.3,0Z"/>
      </g>
      <g>
        <path class="cls-1" d="M125.22,114.85c.97,1.22,1.92,2.46,2.88,3.68.47.59,5.13,5.18,6.99,6.88,1.96,1.78,3.92,3.56,5.94,5.26.96.81,2.02,1.49,3.07,2.16,1.89,1.21,3.97,1.84,6.09,2.28,2.97.63,11.42,1.46,12.08,1.42-.37-.1,2.55-.63,2.46-.99-1.13-.06-2.91-1.16-4.87-1.39-3.01-.35-8.7-.49-11.66-1.19-1.69-.4-3.26-1.21-4.66-2.34-1.98-1.6-3.91-3.26-5.82-4.96-1.98-1.75-3.95-3.52-5.84-5.38-.8-.78-1.97-2.25-2.69-3.21-.2-.27.07-.63.39-.51,2.4.95,8.35,4.01,11.15,5.26,7.99,3.56,14.6,7.67,16.24,10.23,2.43,3.82,5.02,4.07,5.21,4.19.16-.28,2.01,0,2.11.04-.07-.07-3.16-4.06-4.22-5.84-2.91-4.92-10.51-8.94-19.3-12.05-4.58-1.62-13.3-6.37-15.6-6.37-.5,0-.95.23-1.08.86-.12.58.95,1.73,1.13,1.96Z"/>
        <path class="cls-1" d="M217.16,114.55c-6.68,4.4-15.81,9.5-27.05,14.86-8.82,4.21-16.68,5.88-35.61,6.96-5.66.32-11.29.15-16.88-.81-3.54-.61-7.08-1.22-10.61-1.87-4.25-.79-8.49-1.65-12.74-2.45-2.98-.56-5.97-1.11-8.97-1.59-.59-.09-.93-.29-1.21-.79-1.23-2.27-2.48-4.54-3.75-6.79-.75-1.33-1.51-2.65-2.34-3.93-.58-.89-1.19-1.8-1.93-2.55-2.85-2.85-6.36-4.72-9.92-6.5-3.2-1.6-6.42-3.15-9.38-5.19-1.21-.84-2.58-1.54-3.98-2.01-1.59-.53-2.53.57-2.13,2.18.66,2.65,1.85,5.04,3.57,7.13,1.59,1.93,3.13,3.96,5.01,5.58,2.65,2.28,5.54,4.29,8.42,6.29,2.96,2.05,6.22,3.54,9.59,4.77,1.26.46,2.53.9,3.74,1.33-3.24.02-6.49-.01-9.74.06-2.85.06-5.7.25-8.55.36-4.57.17-10.99-.41-20.39,1.43-4.85.95-10.16,2.58-17.18,6.79-2.59,1.55-5,3.4-7.5,5.1-.88.6-1.79,1.16-2.67,1.76-1.48,1.02-3.04,1.97-4.38,3.16-.49.44-.75,1.53-.61,2.21.2.9,1.2.9,2.02.77.51-.08,1-.3,1.52-.37,4.58-.59,12.48-.8,18.01-2.59,5.89-1.91,6.5-2.97,12.32-6.15,1.56-.85,7.1-4.91,18.01-9.08,1.53-.59,2.94-.89,4.65-1.04,1.95-.17,11.56-.07,15.37.31,5.18.53,10.32,1.47,15.47,2.29,4.67.75,9.32,1.58,13.98,2.36,2.17.36,4.35.69,6.68,1.06-2.36.3-4.54.55-6.72.85-6.29.88-12.2,2.92-17.67,6.11-2.95,1.72-5.8,3.62-8.55,5.65-2.65,1.95-5.11,4.15-7.65,6.25-.75.62-1.48,1.27-2.23,1.9-2.2,1.83-4.41,3.65-6.6,5.48-.56.47-.56,1.01-.1,1.56.83.98,5.07-.39,6.34-.81,3.58-1.19,13.3-2.73,16.67-4.01,8.85-3.36,13.69-8.33,16.49-10.56,2.31-1.84,10.35-10.54,12.51-11.68.54-.29,1.29-.34,1.93-.28,4.42.41,7.99.46,12.41.23,19.62-1.05,27.18-3.71,34.86-7.08,13.02-5.72,28.6-13.71,37.99-22.68,7.2-6.88,5.15-6.12,2.24-3.59-1.47,1.28-9.89,7.74-12.74,9.62ZM55.41,142.29c-9.57,4.84-18.8,4.24-18.84,4.16,2.85-2.02,5.66-4.12,8.57-6.06,4.71-3.14,9.15-5.48,14.6-7.08,5.26-1.55,10.78-2.3,16.75-2.26,1.91.01,3.85.21,5.82.54-.71.17-13.81,4.08-26.89,10.7ZM103.28,129.17c-.96-.39-1.92-.75-2.86-1.17-5.16-2.28-10.09-4.94-14.69-8.24-2.79-2-5.41-4.14-7.74-6.68-1.9-2.07-3.37-4.37-4.4-6.96-.1-.25,7.23,4.94,12.27,6.66,3.91,1.33,7.75,3.25,9.98,6.85,1.06,1.71,7.56,9.41,7.44,9.54ZM124.08,148.07c-3.96,3.14-8.1,6.24-12.62,8.47-5.79,2.87-11.7,2.08-17.83,5.62l2.25-1.77c.87-.8,1.72-1.63,2.61-2.41,2.11-1.85,4.16-3.77,6.37-5.49,4.26-3.32,8.68-6.41,13.63-8.69,6.24-2.87,12.84-4.37,19.55-5.53.05,0,.12.02.37.08-7.58,2.93-11.3,7.3-14.32,9.7Z"/>
      </g>
    </g>
  </g>
</svg>